<?xml version="1.0" encoding="UTF-8" standalone="no"?>
<svg
   xmlns:dc="http://purl.org/dc/elements/1.1/"
   xmlns:cc="http://creativecommons.org/ns#"
   xmlns:rdf="http://www.w3.org/1999/02/22-rdf-syntax-ns#"
   xmlns:svg="http://www.w3.org/2000/svg"
   xmlns="http://www.w3.org/2000/svg"
   xmlns:sodipodi="http://sodipodi.sourceforge.net/DTD/sodipodi-0.dtd"
   xmlns:inkscape="http://www.inkscape.org/namespaces/inkscape"
   width="62.106667mm"
   height="37.558357mm"
   viewBox="0 0 62.106667 37.558357"
   version="1.1"
   id="svg8"
   inkscape:version="1.0.1 (c497b03c, 2020-09-10)"
   sodipodi:docname="otter.svg">
  <defs
     id="defs2" />
  <sodipodi:namedview
     id="base"
     pagecolor="#ffffff"
     bordercolor="#666666"
     borderopacity="1.0"
     inkscape:pageopacity="0.0"
     inkscape:pageshadow="2"
     inkscape:zoom="3.7909189"
     inkscape:cx="117.84559"
     inkscape:cy="60.205524"
     inkscape:document-units="mm"
     inkscape:current-layer="layer1"
     inkscape:document-rotation="0"
     showgrid="false"
     fit-margin-top="0"
     fit-margin-left="0"
     fit-margin-right="0"
     fit-margin-bottom="0"
     inkscape:window-width="1680"
     inkscape:window-height="1022"
     inkscape:window-x="0"
     inkscape:window-y="0"
     inkscape:window-maximized="0" />
  <metadata
     id="metadata5">
    <rdf:RDF>
      <cc:Work
         rdf:about="">
        <dc:format>image/svg+xml</dc:format>
        <dc:type
           rdf:resource="http://purl.org/dc/dcmitype/StillImage" />
        <dc:title></dc:title>
      </cc:Work>
    </rdf:RDF>
  </metadata>
  <g
     inkscape:label="Layer 1"
     inkscape:groupmode="layer"
     id="layer1"
     transform="translate(-16.922639,-37.899934)">
    <path
       style="fill:#452f18;fill-opacity:1;stroke:#000000;stroke-width:1;stroke-linecap:butt;stroke-linejoin:miter;stroke-miterlimit:4;stroke-dasharray:none;stroke-opacity:1"
       d="m 47.905262,55.17602 c 1.690988,-0.230909 3.076047,-0.755511 6.130668,0.322667 l 6.689961,10.174758 -12.024717,0.580803 z"
       id="path974"
       sodipodi:nodetypes="ccccc" />
    <path
       style="fill:#452f18;fill-opacity:1;stroke:#000000;stroke-width:1;stroke-linecap:round;stroke-linejoin:miter;stroke-miterlimit:4;stroke-dasharray:none;stroke-opacity:1"
       d="m 59.781767,64.598422 c 1.060494,-4.910299 0.310517,-11.869113 -3.465658,-11.552002 -4.192347,0.35206 -1.476266,6.090695 -1.591823,9.378847"
       id="path972"
       sodipodi:nodetypes="csc" />
    <path
       style="fill:#e5d9bf;fill-opacity:1;stroke:#000000;stroke-width:1;stroke-linecap:butt;stroke-linejoin:miter;stroke-miterlimit:4;stroke-dasharray:none;stroke-opacity:1"
       d="m 21.003919,54.555033 20.958162,-4.471702 c 11.74389,6.70878 10.159429,10.729245 12.619724,14.994974 -1.119172,5.107876 -4.727888,7.459471 -8.630457,9.485728 -15.027424,2.656386 -23.261311,-8.472641 -24.947429,-20.009 z"
       id="path924"
       sodipodi:nodetypes="ccccc" />
    <path
       style="fill:#452f18;fill-opacity:1;stroke:#000000;stroke-width:1;stroke-linecap:butt;stroke-linejoin:miter;stroke-miterlimit:4;stroke-dasharray:none;stroke-opacity:1"
       d="m 21.003919,54.555032 8.264776,4.025913 1.829295,2.264839 5.182996,5.792764 c 1.059314,-3.006392 2.758974,-4.615665 5.095889,-4.834562 6.774715,-0.472191 8.011509,3.954547 11.977518,5.966981 -1.26637,3.332188 -4.05675,5.309701 -7.403045,6.793066 C 34.082943,76.113057 25.102485,70.981009 21.003919,54.555032 Z"
       id="path964"
       sodipodi:nodetypes="cccccccc" />
    <path
       style="fill:#452f18;fill-opacity:1;stroke:#000000;stroke-width:1;stroke-linecap:round;stroke-linejoin:round;stroke-miterlimit:4;stroke-dasharray:none;stroke-opacity:1"
       d="M 78.529377,49.294679 C 63.951845,65.345669 76.720399,74.310097 45.951348,74.564033 49.197883,72.7331 52.355074,70.580531 54.581805,65.078305 69.328741,64.494958 65.881741,50.274752 78.529377,49.294679 Z"
       id="path916"
       sodipodi:nodetypes="cccc" />
    <path
       style="fill:#452f18;fill-opacity:1;stroke:none;stroke-width:0.264583px;stroke-linecap:butt;stroke-linejoin:miter;stroke-opacity:1"
       d="m 38.369115,40.000454 c 0,0 1.677842,-1.234996 2.773278,-0.06525 1.095436,1.169746 0.03263,3.099546 0.03263,3.099546 z"
       id="path920"
       sodipodi:nodetypes="czcc" />
    <path
       style="fill:#452f18;fill-opacity:1;stroke:none;stroke-width:0.264583px;stroke-linecap:butt;stroke-linejoin:miter;stroke-opacity:1"
       d="m 18.885523,50.927897 c 0,0 -2.05145,-0.363212 -1.959909,-1.963183 0.09154,-1.59997 2.221937,-2.161307 2.221937,-2.161307 z"
       id="path922"
       sodipodi:nodetypes="czcc" />
    <path
       style="fill:#e5d9bf;fill-opacity:1;stroke:#000000;stroke-width:1;stroke-linecap:butt;stroke-linejoin:miter;stroke-miterlimit:4;stroke-dasharray:none;stroke-opacity:1"
       d="m 27.290903,39.264687 c -4.429338,1.381716 -9.599069,6.861697 -8.163946,11.27402 3.924959,12.067385 11.47352,7.7444 16.405642,5.909141 C 39.780671,54.867126 44.53722,50.496293 41.8305,44.39631 38.808672,37.586187 32.19726,37.734167 27.290903,39.264687 Z"
       id="path918"
       sodipodi:nodetypes="asssa" />
    <path
       style="fill:#000000;fill-opacity:1;stroke:none;stroke-width:0.264583px;stroke-linecap:butt;stroke-linejoin:miter;stroke-opacity:1"
       d="m 23.569207,46.510712 c 0.679737,-0.494955 2.006495,-0.429842 2.510809,0.24298 0.585134,0.780648 0.244514,2.30453 -0.546709,2.875283 -0.701388,0.50595 -2.075358,0.364097 -2.571554,-0.344226 -0.543105,-0.775286 -0.157765,-2.216838 0.607454,-2.774037 z"
       id="path926"
       sodipodi:nodetypes="aaaaa" />
    <path
       style="fill:#000000;fill-opacity:1;stroke:none;stroke-width:0.264583px;stroke-linecap:butt;stroke-linejoin:miter;stroke-opacity:1"
       d="m 34.751322,45.726103 c -0.744124,-0.391537 -1.271206,-1.610845 -0.890004,-2.360316 0.442293,-0.86958 1.960075,-1.236427 2.821418,-0.778297 0.763546,0.406113 1.242599,1.701653 0.825958,2.459507 -0.45603,0.829499 -1.919668,1.119882 -2.757372,0.679106 z"
       id="path928"
       sodipodi:nodetypes="aaaaa" />
    <path
       style="fill:#ffffff;fill-opacity:1;stroke:none;stroke-width:0.0977603px;stroke-linecap:butt;stroke-linejoin:miter;stroke-opacity:1"
       d="m 24.55838,46.933152 c 0.251155,-0.18288 0.741377,-0.158822 0.927715,0.08978 0.2162,0.28844 0.09034,0.851497 -0.202003,1.062383 -0.259154,0.186943 -0.76682,0.13453 -0.950159,-0.127187 -0.200671,-0.286459 -0.05829,-0.819096 0.224447,-1.024974 z"
       id="path930"
       sodipodi:nodetypes="aaaaa" />
    <path
       style="fill:#ffffff;fill-opacity:1;stroke:none;stroke-width:0.0977603px;stroke-linecap:butt;stroke-linejoin:miter;stroke-opacity:1"
       d="m 34.654903,43.124814 c 0.251155,-0.18288 0.741377,-0.158822 0.927715,0.08978 0.2162,0.28844 0.09034,0.851497 -0.202003,1.062383 -0.259154,0.186943 -0.76682,0.13453 -0.950159,-0.127187 -0.200671,-0.286459 -0.05829,-0.819096 0.224447,-1.024974 z"
       id="path932"
       sodipodi:nodetypes="aaaaa" />
    <path
       style="fill:#000000;fill-opacity:1;stroke:#000000;stroke-width:0.264583px;stroke-linecap:butt;stroke-linejoin:miter;stroke-opacity:1"
       d="m 28.180969,47.751872 c -0.0032,-1.695282 3.595969,-3.12955 4.729871,-1.869289 0.776719,0.863274 -0.526813,2.680076 -1.614386,3.087161 -1.044265,0.390875 -3.113409,-0.102852 -3.115485,-1.217872 z"
       id="path936"
       sodipodi:nodetypes="aaaa" />
    <path
       style="fill:#d76980;fill-opacity:1;stroke:none;stroke-width:0.264583px;stroke-linecap:butt;stroke-linejoin:miter;stroke-opacity:1"
       d="m 30.420026,52.320637 c -0.120131,-0.888004 2.464565,-1.836874 3.30418,-1.273745 0.620257,0.416004 -0.48412,1.63786 -1.182223,1.90325 -0.689636,0.26217 -2.02305,0.101623 -2.121957,-0.629505 z"
       id="path938"
       sodipodi:nodetypes="ssas" />
    <path
       style="fill:none;stroke:#000000;stroke-width:1;stroke-linecap:round;stroke-linejoin:miter;stroke-miterlimit:4;stroke-dasharray:none;stroke-opacity:1"
       d="m 34.8707,47.528799 c 0.715706,3.385886 -2.265923,3.128046 -3.704808,1.34868 -0.645714,3.44204 -2.353747,2.837786 -3.88355,1.54367"
       id="path940"
       sodipodi:nodetypes="ccc" />
    <path
       style="fill:none;stroke:#000000;stroke-width:1;stroke-linecap:butt;stroke-linejoin:miter;stroke-miterlimit:4;stroke-dasharray:none;stroke-opacity:1"
       d="m 29.019383,51.436764 c 1.490294,4.533413 6.699228,3.02953 5.553774,-1.489586"
       id="path942"
       sodipodi:nodetypes="cc" />
    <path
       style="fill:#452f18;fill-opacity:1;stroke:#000000;stroke-width:1;stroke-linecap:butt;stroke-linejoin:miter;stroke-miterlimit:4;stroke-dasharray:none;stroke-opacity:1"
       d="m 43.959902,52.245537 c -1.704501,0.321455 -4.125402,1.676784 -3.938236,3.401203 0.22801,2.100731 2.801941,3.55478 5.574904,3.017607 2.79492,-0.541426 4.0555,-2.755583 3.503495,-4.603131 -0.520198,-1.741089 -3.354502,-2.15244 -5.140163,-1.815679 z"
       id="path944"
       sodipodi:nodetypes="aasaa" />
    <path
       style="fill:none;stroke:#000000;stroke-width:1;stroke-linecap:round;stroke-linejoin:miter;stroke-miterlimit:4;stroke-dasharray:none;stroke-opacity:1"
       d="m 40.882974,54.111937 2.284904,0.228248"
       id="path946"
       sodipodi:nodetypes="cc" />
    <path
       style="fill:none;stroke:#000000;stroke-width:1;stroke-linecap:round;stroke-linejoin:miter;stroke-miterlimit:4;stroke-dasharray:none;stroke-opacity:1"
       d="M 40.551453,56.157399 43.30108,55.959651"
       id="path948"
       sodipodi:nodetypes="cc" />
    <path
       style="fill:none;stroke:#000000;stroke-width:1;stroke-linecap:round;stroke-linejoin:miter;stroke-miterlimit:4;stroke-dasharray:none;stroke-opacity:1"
       d="m 41.994221,58.03703 2.568902,-0.933559"
       id="path950"
       sodipodi:nodetypes="cc" />
    <path
       style="fill:#452f18;fill-opacity:1;stroke:#000000;stroke-width:1;stroke-linecap:butt;stroke-linejoin:miter;stroke-miterlimit:4;stroke-dasharray:none;stroke-opacity:1"
       d="m 31.735836,60.126382 c -1.660436,1.880894 -4.252502,5.444834 -2.397951,7.134642 2.034485,1.853758 5.856014,-1.175268 7.549104,-3.34529 1.423096,-1.823972 4.564113,-4.543208 1.18417,-6.838599 -2.665996,-1.810535 -4.784281,1.292272 -6.335323,3.049247 z"
       id="path954"
       sodipodi:nodetypes="aaasa" />
    <path
       style="fill:none;stroke:#000000;stroke-width:1;stroke-linecap:round;stroke-linejoin:miter;stroke-miterlimit:4;stroke-dasharray:none;stroke-opacity:1"
       d="M 35.888834,56.849795 35.044823,58.96342"
       id="path956"
       sodipodi:nodetypes="cc" />
    <path
       style="fill:none;stroke:#000000;stroke-width:1;stroke-linecap:round;stroke-linejoin:miter;stroke-miterlimit:4;stroke-dasharray:none;stroke-opacity:1"
       d="m 38.27839,57.461993 -1.835468,2.013093"
       id="path958" />
    <path
       style="fill:none;stroke:#000000;stroke-width:1;stroke-linecap:round;stroke-linejoin:miter;stroke-miterlimit:4;stroke-dasharray:none;stroke-opacity:1"
       d="m 39.467036,59.468368 -1.680728,1.208206"
       id="path960"
       sodipodi:nodetypes="cc" />
    <path
       style="fill:#452f18;fill-opacity:1;stroke:#000000;stroke-width:1;stroke-linecap:round;stroke-linejoin:miter;stroke-miterlimit:4;stroke-dasharray:none;stroke-opacity:1"
       d="m 51.960644,69.338933 c -0.191789,-4.748325 0.773573,-10.91679 -4.26835,-9.712677 -4.552284,1.306403 -1.318493,6.415308 -1.437302,9.886897"
       id="path962"
       sodipodi:nodetypes="ccc" />
    <path
       style="fill:none;stroke:#000000;stroke-width:1;stroke-linecap:round;stroke-linejoin:miter;stroke-miterlimit:4;stroke-dasharray:none;stroke-opacity:1"
       d="m 46.00594,60.566418 1.000831,1.824096"
       id="path966" />
    <path
       style="fill:none;stroke:#000000;stroke-width:1;stroke-linecap:round;stroke-linejoin:miter;stroke-miterlimit:4;stroke-dasharray:none;stroke-opacity:1"
       d="m 48.201312,59.727012 0.09686,1.985518"
       id="path968" />
    <path
       style="fill:none;stroke:#000000;stroke-width:1;stroke-linecap:round;stroke-linejoin:miter;stroke-miterlimit:4;stroke-dasharray:none;stroke-opacity:1"
       d="M 50.138403,60.001432 49.686416,61.84167"
       id="path970" />
    <path
       style="fill:none;stroke:#000000;stroke-width:1;stroke-linecap:round;stroke-linejoin:miter;stroke-miterlimit:4;stroke-dasharray:none;stroke-opacity:1"
       d="m 54.523814,54.312113 0.920903,1.598348"
       id="path976"
       sodipodi:nodetypes="cc" />
    <path
       style="fill:none;stroke:#000000;stroke-width:1;stroke-linecap:round;stroke-linejoin:miter;stroke-miterlimit:4;stroke-dasharray:none;stroke-opacity:1"
       d="m 56.016313,53.317113 0.412819,1.608935"
       id="path978"
       sodipodi:nodetypes="cc" />
    <path
       style="fill:none;stroke:#000000;stroke-width:1;stroke-linecap:round;stroke-linejoin:miter;stroke-miterlimit:4;stroke-dasharray:none;stroke-opacity:1"
       d="m 57.688757,53.359454 0.169361,1.714785"
       id="path980"
       sodipodi:nodetypes="cc" />
    <path
       style="fill:#e18484;fill-opacity:1;stroke:#000000;stroke-width:1;stroke-linecap:round;stroke-linejoin:round;stroke-miterlimit:4;stroke-dasharray:none;stroke-opacity:1"
       d="m 47.87625,42.303322 c 0.527546,-2.596838 3.831539,-1.058755 4.64044,0.368344 -0.942155,-2.199592 2.811082,-4.876603 3.722693,-2.114628 0.911612,2.761973 -2.162249,5.124087 -1.87647,8.123979 -1.845315,-2.413685 -7.01421,-3.780857 -6.486663,-6.377695 z"
       id="path871"
       sodipodi:nodetypes="zczcz" />
  </g>
</svg>
